inDegrees=no
num_controls=7
num_derivatives=13
num_iterations=124
num_multipliers=7
num_parameters=0
num_slacks=7
num_states=26
objective=5.690753
objective_accelerations=0.826720
objective_balance=0.055555
objective_effort=0.348792
objective_height=4.366494
objective_ligament=0.093192
solver_duration=1390.285855
status=Solve_Succeeded
success=true
DataType=double
version=3
OpenSimVersion=4.4-2022-07-23-0e9fedc
endheader
time	/jointset/ground_pelvis/pelvis_tilt/value	/jointset/ground_pelvis/pelvis_tx/value	/jointset/ground_pelvis/pelvis_ty/value	/jointset/hip_l/hip_flexion_l/value	/jointset/hip_l/hip_adduction_l/value	/jointset/hip_l/hip_rotation_l/value	/jointset/back/lumbar_extension/value	/jointset/patellofemoral_l/patellar_flexion_l/value	/jointset/knee_l/knee_flexion_l/value	/jointset/knee_l/knee_adduction_l/value	/jointset/knee_l/knee_rotation_l/value	/jointset/ankle_l/ankle_angle_l/value	/jointset/subtalar_l/subtalar_angle_l/value	/jointset/ground_pelvis/pelvis_tilt/speed	/jointset/ground_pelvis/pelvis_tx/speed	/jointset/ground_pelvis/pelvis_ty/speed	/jointset/hip_l/hip_flexion_l/speed	/jointset/hip_l/hip_adduction_l/speed	/jointset/hip_l/hip_rotation_l/speed	/jointset/back/lumbar_extension/speed	/jointset/patellofemoral_l/patellar_flexion_l/speed	/jointset/knee_l/knee_flexion_l/speed	/jointset/knee_l/knee_adduction_l/speed	/jointset/knee_l/knee_rotation_l/speed	/jointset/ankle_l/ankle_angle_l/speed	/jointset/subtalar_l/subtalar_angle_l/speed	/forceset/tau_hip_flexion_l	/forceset/tau_hip_adduction_l	/forceset/tau_hip_rotation_l	/forceset/tau_knee_flexion_l	/forceset/tau_ankle_angle_l	/forceset/tau_subtalar_angle_l	/forceset/tau_lumbar_extension	lambda_cid13_p0	lambda_cid13_p1	lambda_cid13_p2	lambda_cid13_p3	lambda_cid13_p4	lambda_cid13_p5	lambda_cid14_p0	/jointset/ground_pelvis/pelvis_tilt/accel	/jointset/ground_pelvis/pelvis_tx/accel	/jointset/ground_pelvis/pelvis_ty/accel	/jointset/hip_l/hip_flexion_l/accel	/jointset/hip_l/hip_adduction_l/accel	/jointset/hip_l/hip_rotation_l/accel	/jointset/back/lumbar_extension/accel	/jointset/patellofemoral_l/patellar_flexion_l/accel	/jointset/knee_l/knee_flexion_l/accel	/jointset/knee_l/knee_adduction_l/accel	/jointset/knee_l/knee_rotation_l/accel	/jointset/ankle_l/ankle_angle_l/accel	/jointset/subtalar_l/subtalar_angle_l/accel	gamma_cid13_p0	gamma_cid13_p1	gamma_cid13_p2	gamma_cid13_p3	gamma_cid13_p4	gamma_cid13_p5	gamma_cid14_p0
0.5	-0.4499946095207283	-0.09399201963949951	0.7373082652593221	1.278283286504722	-0.4332446023236796	-0.2289030654027696	-0.2571041016539867	0.7764728516387505	0.7764728516387412	-0.1346237528191954	-0.1603103805229693	0.002908171399965643	-0.08279467244249204	-1.050111531757945	-0.3361764513683628	-0.612259548161826	2.93491308377163	-0.2000653747146878	0.7278620008249934	-0.09410964691570846	1.908871168696552	1.908871168696692	0.1130844570016571	-0.08505662595875524	0.1787720214522032	-0.1361738102411196	-0.2158041383692608	0.01040172740648716	-0.009373783445922575	-0.1984049524132353	0.1189236078858231	0.05517640339028134	0.1974947002134061	4.975528184541627	-27.13853276625266	6.622705536533699	-12.37986052261911	-519.9490820685917	-60.37069718396233	-26.63671788173246	1.130750468007818	0.8539265009405941	-0.4641053498411067	-1.77417313342176	0.7475185157233328	-0.1574767760126912	1.170470085106204	-1.197278530651726	-1.197278530651698	0.1055784163222388	0.2239827786178935	-0.3333785677559375	0.6170967537743604	-4.76410252546684e-07	-6.550002619328068e-07	2.104038769132304e-06	2.775437333153616e-08	-5.947734375360011e-07	6.550736158076404e-07	-4.491459519770006e-07
0.51	-0.4604363886642943	-0.09731076861942259	0.7311638015032434	1.307537897811546	-0.4352092822546058	-0.2216317397137393	-0.257988623507091	0.7954988905866012	0.7954988905865863	-0.1334919637205434	-0.1611497983295273	0.0046781775191005	-0.08412756517307145	-1.038080298365455	-0.3275531457455497	-0.6165051156065645	2.915622741035619	-0.1928503325291799	0.7262930939874087	-0.08286937172018459	1.896089150314574	1.896089150314614	0.1132841423400041	-0.08283198016335235	0.1751724078948582	-0.1304069246409762	-0.2231904528699039	0.01102902898931911	-0.009453671710123309	-0.199915092811713	0.1192563510856756	0.05610681307362615	0.2029285507584078	4.820527119361621	-27.47166427299621	6.625778244809702	-12.25261762110503	-524.2330143759939	-59.91066813912839	-25.7670463665959	1.263838514290109	0.8695804348279877	-0.3856948676599252	-2.064513269383422	0.7113380312611519	-0.1735056209187349	1.089609034607153	-1.355688124751704	-1.355688124766681	-0.02121665565195627	0.2214759083619363	-0.3817562180931354	0.5559552680316879	-5.079025779990695e-07	-4.913857700864753e-07	2.392827026580763e-06	8.862014188582106e-08	-5.936173137659914e-07	7.15094317426383e-07	-4.603742968256949e-07
0.52	-0.4707529497260467	-0.1005426749747425	0.7249806995875433	1.336587996005879	-0.4371012435714137	-0.2143794846897376	-0.2587629820486711	0.8143897044240989	0.8143897044240345	-0.1323578538182198	-0.1619670155923917	0.006410486808991001	-0.08540289488667002	-1.025067915396156	-0.318807926447727	-0.6199871800860959	2.894010461271883	-0.1855216518918189	0.7240478678183372	-0.07207698461139644	1.881826146621363	1.881826146621304	0.1135486177486432	-0.08061651723353777	0.1712326556027384	-0.1246612068449386	-0.2305767673704848	0.01165633057218434	-0.009533559974896841	-0.2014252332101425	0.1195890942855398	0.05703722275701997	0.208362401303459	4.660606695366025	-27.80526406230321	6.630445850213367	-12.14833635966266	-528.6091322017484	-59.5123740887801	-24.89838792260029	1.32698038336974	0.8783092359424908	-0.311404756799709	-2.238560538967273	0.7702462060939346	-0.2927406423100423	1.080892467759129	-1.493475592898327	-1.493475592898321	0.1185364303806973	0.2221462055002459	-0.4014063147109013	0.6128631929532407	-4.603327141016063e-07	-3.984649372628785e-07	2.243703073242798e-06	8.571823585866853e-08	-5.247264070624654e-07	7.071076944057335e-07	-4.212136103795536e-07
0.53	-0.4809348780541486	-0.1036865225747397	0.7187666236676855	1.365410838362282	-0.4389191888668251	-0.2071528034556372	-0.2594316604337517	0.8331306707183381	0.8331306707183819	-0.1312204425611346	-0.1627618210128077	0.008101970420596374	-0.08662056440856936	-1.011173430401784	-0.3099400149236645	-0.6226937572741963	2.870173772867984	-0.1780596913246922	0.7212023035504711	-0.06175650903016613	1.866121892436108	1.866121892436045	0.1139125668650781	-0.07833387711355237	0.1670223904219496	-0.1188809229102218	-0.2373602854632663	0.01165591081128676	-0.00962502123322625	-0.2038362877847942	0.12126960766204	0.05765681508477379	0.2133166811640884	4.927928091479106	-28.09230717787211	6.643251952648453	-12.34515620758939	-532.9506632804769	-59.00304759983697	-24.0314447551103	1.442266817891745	0.894285743598114	-0.2302449163987765	-2.513931658640835	0.7351288916306395	-0.2937053854865263	0.9929526096761117	-1.645603171722116	-1.645603171722701	-0.007818412926030078	0.2333851068856163	-0.4370665704870958	0.5591808662006177	-4.288843822053319e-07	-3.288468964715377e-07	2.152445673067854e-06	8.839113245010397e-08	-4.738685930843003e-07	7.182461967605403e-07	-3.95548440237598e-07
0.54	-0.49097354468022	-0.1067410403329047	0.7125294898326299	1.39398377210113	-0.4406623229746409	-0.1999572260774798	-0.2600000685617487	0.8517072539026987	0.851707253902776	-0.1300800203260522	-0.1635333875935477	0.009750105390256133	-0.08778071711662767	-0.996415574990614	-0.3009419580812737	-0.6245987631256747	2.84402873776246	-0.1705594143732508	0.7178270966241611	-0.05202293319409434	1.848949524635536	1.848949524635469	0.1141508133734963	-0.07596874932806121	0.1625629272121922	-0.1131578440767143	-0.2441438035561054	0.01165549105047638	-0.009716482493002665	-0.2062473423593198	0.1229501210385985	0.05827640741266819	0.2182709610246095	5.188694449610574	-28.37922811776255	6.657211306825221	-12.55540608510038	-537.4116205903549	-58.54633426501068	-23.16740305994351	1.499654466729377	0.9043382996081374	-0.1510904894753261	-2.70022987929233	0.7779094829568366	-0.39866917399885	0.9635125187274671	-1.787098315961605	-1.787098315961602	0.09339590877738707	0.2386437386014171	-0.4512459205046301	0.6014221727114171	-4.152726389061175e-07	-2.850106681414169e-07	2.125210842349872e-06	9.723189576848791e-08	-4.429622859512155e-07	7.505444122967034e-07	-3.848144796236777e-07
0.55	-0.500860586837729	-0.109705079211206	0.7062772742285763	1.422284293280475	-0.442330186360373	-0.1927980306308308	-0.2604741115978257	0.8701050346151624	0.8701050346151917	-0.1289375378704573	-0.1642808984819565	0.01135244497243452	-0.08888381864863845	-0.980857683714501	-0.2918578939946498	-0.6257122710847781	2.815719522953496	-0.1630073438932859	0.7139149208645119	-0.04290556264435603	1.830380982746354	1.830380982746376	0.1143432183374501	-0.07353030837739187	0.1578649900125331	-0.1074714517694875	-0.2507573006255567	0.01147704259344092	-0.009746608186548192	-0.2083729979199688	0.1241521965182251	0.05882138791712419	0.2230027242035195	5.310316985954667	-28.60488538587611	6.65626597850193	-12.54686202616348	-541.5883123277304	-58.04996624511953	-22.30773037016849	1.604071074554125	0.9116494116156681	-0.07175317996341467	-2.949733236590158	0.7445349571764954	-0.4023586914243797	0.8678660298351402	-1.925501600426273	-1.925501600413135	-0.01818305315083971	0.2473585146978538	-0.4850420895279527	0.5506950690778243	-4.026335945466924e-07	-2.327888606927685e-07	2.108261869238406e-06	1.123529504921161e-07	-4.15827845207289e-07	7.789418400074526e-07	-3.726916705875212e-07
